<svg xmlns="http://www.w3.org/2000/svg" xmlns:xlink="http://www.w3.org/1999/xlink" style="enable-background:new 0 0 436.071 436.071" id="Capa_1" width="512" height="512" x="0" y="0" version="1.1" viewBox="0 0 436.071 436.071" xml:space="preserve"><path fill="#003387" d="M91.303,78.36c1.559,31.837,15.037,57.308,37.883,70.88c10.718,6.367,22.735,9.551,34.752,9.551s24.035-3.184,34.753-9.552 c25.498-15.147,39.325-45.113,37.938-82.212c-1.425-38.147-28.361-59.56-57.082-65.855c-0.555-0.168-17.011-2.767-32.812,0.365 c-28.115,6.729-54.088,28.05-55.488,65.489c-0.135,3.619-0.125,7.171,0.025,10.646C91.273,77.903,91.284,78.132,91.303,78.36z M188.475,132.044c-15.135,8.993-33.939,8.992-49.075,0.001c-14.185-8.428-23.502-23.614-26.857-43.063 c15.022,0.358,29.87-4.287,42.205-13.429c1.393-1.031,2.744-2.113,4.054-3.245c15.827,13.621,36.608,19.272,56.703,15.631 C212.307,107.889,202.913,123.467,188.475,132.044z M185.093,23.609c16.883,6.633,30.444,20.859,31.522,43.554 c-15.511,4.439-32.182,0.715-44.635-9.905C178.336,47.65,182.786,36.272,185.093,23.609z M111.95,60.587 c3.994-24.032,23.127-37.093,43.673-40.495c2.757-0.456,9.381-0.801,9.917-0.767c-3.02,17.367-10.908,31.422-22.7,40.16 c-9.224,6.835-20.429,10.109-31.645,9.424C111.205,68.533,111.568,62.882,111.95,60.587z M169.323,232.111l0.004,63.933 c0,5.523-4.477,10.001-10,10.001c-5.522,0-10-4.477-10-9.999l-0.004-63.933c0-5.523,4.477-10.001,10-10.001 C164.844,222.112,169.322,226.588,169.323,232.111z M301.113,370.149l32.017-32.041l-0.005-48.038h-4.088v1.247 c0,5.522-4.477,10-10,10s-10-4.478-10-10v-1.247h-16v1.247c0,5.522-4.477,10-10,10s-10-4.478-10-10v-1.247h-16v1.247 c0,5.522-4.477,10-10,10s-10-4.478-10-10v-1.247h-4v38h25.098c5.523,0,10,4.477,10,9.999c0,5.523-4.477,10.001-10,10.001h-25.099v19 h35.594c5.523,0,10,4.478,10,10s-4.478,10-10,10h-35.594v29h100.089l0.005-21.817c0.001-5.522,4.479-10.183,10-10.183 c0.001,0,0.001,0,0.002,0c5.522,0,9.999,4.648,9.998,10.171l-0.007,31.799c-0.001,5.522-4.478,10.03-10,10.03H223.261 c-5.523,0-10.225-4.542-10.225-10.064V280.163c0-5.522,4.702-10.092,10.225-10.092h13.775v-8.199c0-5.522,4.477-10,10-10 s10,4.478,10,10v8.199h16v-8.199c0-5.522,4.477-10,10-10s10,4.478,10,10v8.199h16v-8.199c0-5.522,4.477-10,10-10s10,4.478,10,10 v8.199h14.087c5.522,0,10,4.522,10,10.045l0.004,38.041l14.347-14.349c3.905-3.904,10.237-3.904,14.142,0 c3.905,3.905,3.906,10.237,0,14.143l-66.362,66.364c-3.905,3.904-10.237,3.904-14.142,0 C297.208,380.41,297.207,374.055,301.113,370.149z M168.499,198.821c-0.83-0.124-4.247-0.313-9.233-0.343 c-3.154-0.011-15.592,1.58-18.433,2.379c-24.57,6.903-41.727,24.456-45.894,46.951l-21.39,115.412l100.713-0.003 c5.523,0,10,4.475,10,9.998c0,5.522-4.477,9.997-10,9.997l-112.737-0.004c-2.971,0-5.789-1.334-7.688-3.618s-2.686-5.32-2.144-8.242 l23.581-127.284c5.586-30.161,28.073-53.651,60.15-62.664c4.989-1.401,18.951-3.328,23.842-3.328c0.042,0,0.083,0,0.124,0 c3.244,0,9.131,0.324,12.095,0.771c25.781,3.896,47.993,17.693,60.943,37.495c3.023,4.622,1.726,10.82-2.896,13.843 c-4.622,3.024-10.819,1.726-13.842-2.896C205.852,212.242,188.652,201.868,168.499,198.821z"/></svg>