<?xml version="1.0" encoding="iso-8859-1"?>
<!-- Generator: Adobe Illustrator 17.1.0, SVG Export Plug-In . SVG Version: 6.00 Build 0)  -->
<!DOCTYPE svg PUBLIC "-//W3C//DTD SVG 1.1//EN" "http://www.w3.org/Graphics/SVG/1.1/DTD/svg11.dtd">
<svg xmlns="http://www.w3.org/2000/svg" xmlns:xlink="http://www.w3.org/1999/xlink" version="1.1" id="Capa_1" x="0px" y="0px" viewBox="0 0 442.652 442.652" style="enable-background:new 0 0 442.652 442.652;" xml:space="preserve" width="512px" height="512px">
<path d="M71.713,248.46l-21.38,115.526h71.948c5.522,0,10,4.477,10,10s-4.478,10-10,10H38.31c-2.971,0-5.788-1.435-7.688-3.719  c-1.899-2.284-2.686-5.409-2.145-8.331l23.569-127.233c5.771-31.162,29.943-54.362,64.659-62.061  c18.084-4.009,37.68-3.327,55.177,1.921c19.114,5.734,34.656,16.391,44.947,30.818c3.207,4.496,2.161,10.741-2.335,13.948  c-4.499,3.208-10.741,2.161-13.948-2.334c-15.396-21.586-48.095-31.795-79.511-24.827C108.253,205.003,77.855,215.292,71.713,248.46  z M90.952,138.114c-11.37-11.804-24.635-33.626-23.253-70.551c1.599-42.76,35.248-64.492,67.535-67.477  c1.607-0.149,9.453-0.099,11.436,0.111c31.938,3.38,64.829,25.101,66.412,67.366c1.382,36.925-11.883,58.747-23.253,70.551  c-13.184,13.686-30.741,21.223-49.438,21.223S104.135,151.8,90.952,138.114z M98.078,39.238c12.326,4.938,26.964,7.823,42.312,8.236  c15.349-0.414,29.987-3.298,42.311-8.236c-10.161-12.529-26.362-18.816-42.311-19.458C124.44,20.421,108.239,26.709,98.078,39.238z   M105.356,124.239c9.379,9.736,21.82,15.098,35.034,15.098s25.655-5.362,35.034-15.098c12.446-12.921,18.557-32.26,17.671-55.928  c-0.148-3.951-0.676-7.645-1.528-11.093c-14.926,6.2-32.59,9.796-50.925,10.257c-0.084,0.002-0.168,0.003-0.252,0.003  s-0.168-0.001-0.252-0.003c-18.334-0.461-35.999-4.057-50.926-10.257c-0.852,3.448-1.379,7.142-1.527,11.092  C86.799,91.979,92.91,111.318,105.356,124.239z M240.578,403.986h-72.479c-5.522,0-10,4.477-10,10s4.478,10,10,10h72.479  c5.522,0,10-4.477,10-10S246.1,403.986,240.578,403.986z M248.375,365.986h-57.052v-84h139v24.591c0,5.523,4.478,10,10,10  s10-4.477,10-10v-34.602c0-5.523-4.532-9.989-10.055-9.989H181.089c-5.522,0-9.767,4.466-9.767,9.989v104.139  c0,5.523,4.244,9.872,9.767,9.872h67.285c5.522,0,10-4.477,10-10S253.897,365.986,248.375,365.986z M406.459,434.771  c-0.06,0.06-0.119,0.118-0.181,0.176c-5.061,4.971-11.76,7.706-18.895,7.706c-7.218,0-13.99-2.798-19.07-7.88l-34.645-34.644  c-7.019-7.021-9.345-16.977-6.993-25.949c-1.507,0.202-2.892,0.872-3.971,1.949l-34.643,34.646  c-2.718,2.718-2.718,7.139-0.001,9.856c1.304,1.304,3.053,2.021,4.927,2.021s3.623-0.717,4.926-2.02l8.522-8.523  c3.904-3.905,10.237-3.906,14.142,0c3.906,3.905,3.906,10.236,0.001,14.142l-8.521,8.522c-5.079,5.081-11.852,7.879-19.069,7.879  s-13.99-2.798-19.07-7.88c-10.514-10.517-10.513-27.626,0.001-38.139l34.646-34.647c1.883-1.882,3.998-3.45,6.282-4.679  l-42.49-42.491c-3.905-3.905-3.905-10.237,0-14.142c3.907-3.904,10.237-3.905,14.143,0l53.771,53.771l55.241-53.861  c3.954-3.855,10.285-3.776,14.142,0.179c1.897,1.946,2.842,4.468,2.84,6.987c-0.002,2.6-1.011,5.196-3.019,7.154l-43.656,42.565  c2.172,1.204,4.19,2.712,5.992,4.513l34.647,34.649C416.97,407.147,416.971,424.255,406.459,434.771z M392.315,410.775  l-34.646-34.648c-1.303-1.301-3.054-2.02-4.929-2.02c-1.874,0-3.623,0.717-4.926,2.021c-0.022,0.022-0.045,0.045-0.068,0.067  c-2.652,2.722-2.631,7.095,0.065,9.792l34.645,34.646c1.304,1.303,3.053,2.021,4.927,2.021s3.624-0.717,4.928-2.021  c0.031-0.031,0.063-0.063,0.095-0.093C395.031,417.813,395.001,413.461,392.315,410.775z" fill="#003387"/>
<g>
</g>
<g>
</g>
<g>
</g>
<g>
</g>
<g>
</g>
<g>
</g>
<g>
</g>
<g>
</g>
<g>
</g>
<g>
</g>
<g>
</g>
<g>
</g>
<g>
</g>
<g>
</g>
<g>
</g>
</svg>
